<svg xmlns="http://www.w3.org/2000/svg" xmlns:xlink="http://www.w3.org/1999/xlink" viewBox="0 0 255.48 59.31"><defs><linearGradient id="a" x1="81.97" x2="92.04" y1="19.55" y2="83.82" gradientUnits="userSpaceOnUse"><stop offset="0" stop-color="#4d4d4d"/><stop offset="1" stop-color="#999"/></linearGradient><linearGradient xlink:href="#a" id="b" x1="106.22" x2="116.29" y1="15.75" y2="80.02"/><linearGradient xlink:href="#a" id="c" x1="129.86" x2="139.92" y1="12.05" y2="76.32"/><linearGradient xlink:href="#a" id="d" x1="153.53" x2="163.6" y1="8.34" y2="72.61"/><linearGradient xlink:href="#a" id="e" x1="180.06" x2="190.13" y1="4.18" y2="68.45"/><linearGradient xlink:href="#a" id="f" x1="202.17" x2="212.24" y1=".72" y2="64.99"/><linearGradient xlink:href="#a" id="g" x1="233.62" x2="243.69" y1="-4.21" y2="60.07"/></defs><path fill="#3eaec2" d="m0 16.84 16.56-4.61v35.7L0 52.4V16.84z"/><path fill="#5bcada" d="M17.71 4.75 33.4 0 16.56 12.38 0 16.84 17.71 4.75z"/><path fill="#096176" d="m35.56 51.68-.14-28.07 16.41-4.75v35.85l-16.27-3.02z"/><path fill="#08566a" d="m35.41 23.61 16.41-4.75v23.75l-16.41-19z"/><path fill="#024c5e" d="M21.59 8.64 33.4 0l18.43 18.86-16.41 4.75L21.6 8.64z"/><path fill="#098698" d="M16.56 47.94 0 52.4l35.41 6.91 16.41-4.61-35.27-6.77z"/><path fill="url(#a)" d="M81.47 24.63v8.86h11.9v5.62h-11.9v9.37h13.42v5.77h-20.5V18.86h20.5v5.77H81.47z"/><path fill="url(#b)" d="M104.61 53.46c-1.82-.83-3.27-1.95-4.33-3.37-1.06-1.42-1.64-2.99-1.75-4.71h7.14c.13 1.08.67 1.97 1.6 2.68.93.71 2.08 1.06 3.47 1.06s2.4-.27 3.16-.81c.76-.54 1.14-1.23 1.14-2.07 0-.91-.46-1.59-1.39-2.05-.93-.46-2.4-.95-4.43-1.49-2.09-.5-3.81-1.03-5.14-1.57a8.959 8.959 0 0 1-3.44-2.48c-.96-1.11-1.44-2.61-1.44-4.51 0-1.55.45-2.97 1.34-4.25.89-1.28 2.18-2.3 3.85-3.04 1.67-.74 3.64-1.11 5.9-1.11 3.34 0 6.01.84 8 2.51 1.99 1.67 3.09 3.92 3.29 6.76h-6.78c-.1-1.11-.57-2-1.39-2.66-.83-.66-1.93-.99-3.32-.99-1.28 0-2.27.24-2.96.71s-1.04 1.13-1.04 1.97c0 .95.47 1.66 1.42 2.15.94.49 2.41.99 4.4 1.49 2.03.51 3.7 1.03 5.01 1.57s2.46 1.38 3.42 2.51 1.46 2.62 1.49 4.48c0 1.62-.45 3.07-1.34 4.35-.9 1.28-2.18 2.29-3.85 3.01-1.67.73-3.62 1.09-5.85 1.09s-4.35-.41-6.18-1.24z"/><path fill="url(#c)" d="M134.63 32.02v13.57c0 .95.23 1.63.68 2.05.46.42 1.22.63 2.3.63h3.29v5.97h-4.46c-5.97 0-8.96-2.9-8.96-8.71V32.01h-3.34v-5.82h3.34v-6.94h7.14v6.94h6.28v5.82h-6.28z"/><path fill="url(#d)" d="M144.63 32.58c1.13-2.19 2.67-3.88 4.61-5.06 1.94-1.18 4.11-1.77 6.51-1.77 2.09 0 3.92.42 5.49 1.27 1.57.85 2.83 1.91 3.77 3.19v-4h7.14v28.05h-7.14v-4.1c-.91 1.32-2.17 2.4-3.77 3.26-1.6.86-3.45 1.29-5.54 1.29-2.36 0-4.51-.61-6.45-1.82-1.94-1.22-3.48-2.93-4.61-5.14-1.13-2.21-1.7-4.75-1.7-7.62s.56-5.35 1.7-7.54zM164 35.79c-.68-1.23-1.59-2.18-2.73-2.84-1.15-.66-2.38-.99-3.7-.99s-2.53.32-3.64.96c-1.11.64-2.02 1.58-2.71 2.81s-1.04 2.69-1.04 4.38.35 3.16 1.04 4.43c.69 1.27 1.6 2.24 2.73 2.91 1.13.68 2.34 1.01 3.62 1.01s2.55-.33 3.7-.99c1.15-.66 2.06-1.6 2.73-2.84.68-1.23 1.01-2.71 1.01-4.43s-.34-3.2-1.01-4.43z"/><path fill="url(#e)" d="M186.07 32.02v13.57c0 .95.23 1.63.68 2.05.46.42 1.22.63 2.3.63h3.29v5.97h-4.46c-5.97 0-8.96-2.9-8.96-8.71V32.01h-3.34v-5.82h3.34v-6.94h7.14v6.94h6.28v5.82h-6.28z"/><path fill="url(#f)" d="M222.06 42.35h-20.5c.17 2.03.88 3.61 2.13 4.76s2.78 1.72 4.61 1.72c2.63 0 4.51-1.13 5.62-3.39h7.65c-.81 2.7-2.36 4.92-4.66 6.66-2.3 1.74-5.11 2.61-8.46 2.61-2.7 0-5.12-.6-7.27-1.8-2.14-1.2-3.81-2.89-5.01-5.09-1.2-2.19-1.8-4.73-1.8-7.6s.59-5.45 1.77-7.64c1.18-2.19 2.84-3.88 4.96-5.06 2.13-1.18 4.57-1.77 7.34-1.77s5.05.57 7.16 1.72c2.11 1.15 3.75 2.78 4.91 4.89s1.75 4.53 1.75 7.26c0 1.01-.07 1.92-.2 2.73zm-7.14-4.76c-.03-1.82-.69-3.28-1.97-4.38s-2.85-1.65-4.71-1.65c-1.75 0-3.23.53-4.43 1.59s-1.93 2.54-2.2 4.43h13.32z"/><path fill="url(#g)" d="m247.33 54.25-7.65-11.9-6.94 11.9h-8l11.14-17.82-11.29-17.52h8.15l7.65 11.85 6.89-11.85h8l-11.09 17.77 11.29 17.57h-8.15z"/></svg>